<svg width="15" height="18" viewBox="0 0 15 18" fill="none" xmlns="http://www.w3.org/2000/svg">
<path d="M7.19093 10.0937C6.57286 10.0937 5.96867 9.91047 5.45477 9.56709C4.94087 9.22371 4.54033 8.73565 4.3038 8.16463C4.06728 7.59362 4.00539 6.96528 4.12597 6.35909C4.24655 5.7529 4.54418 5.19608 4.98122 4.75904C5.41826 4.322 5.97508 4.02437 6.58127 3.90379C7.18746 3.78322 7.81579 3.8451 8.38681 4.08163C8.95783 4.31815 9.44589 4.71869 9.78927 5.23259C10.1326 5.7465 10.3159 6.35068 10.3159 6.96875C10.315 7.79726 9.98544 8.59157 9.39959 9.17742C8.81375 9.76326 8.01944 10.0928 7.19093 10.0937ZM7.19093 5.09375C6.82009 5.09375 6.45757 5.20372 6.14923 5.40974C5.84089 5.61577 5.60057 5.90861 5.45865 6.25122C5.31674 6.59383 5.27961 6.97083 5.35195 7.33454C5.4243 7.69826 5.60288 8.03235 5.8651 8.29457C6.12732 8.5568 6.46142 8.73537 6.82513 8.80772C7.18885 8.88007 7.56585 8.84294 7.90846 8.70102C8.25107 8.55911 8.54391 8.31879 8.74993 8.01044C8.95596 7.7021 9.06593 7.33959 9.06593 6.96875C9.06538 6.47164 8.86766 5.99504 8.51615 5.64353C8.16464 5.29201 7.68804 5.0943 7.19093 5.09375Z" fill="#0DC5AE"/>
<path d="M7.19092 17.5938L1.91874 11.3758C1.8888 11.3401 1.70111 11.0936 1.70111 11.0936C0.800426 9.9073 0.313814 8.45825 0.315925 6.96875C0.315925 5.14539 1.04025 3.3967 2.32957 2.10739C3.61888 0.818078 5.36756 0.09375 7.19092 0.09375C9.01429 0.09375 10.763 0.818078 12.0523 2.10739C13.3416 3.3967 14.0659 5.14539 14.0659 6.96875C14.0682 8.45764 13.5819 9.90614 12.6817 11.0921L12.6807 11.0936C12.6807 11.0936 12.4932 11.3401 12.4653 11.3732L7.19092 17.5938ZM2.69874 10.3406C2.69936 10.3411 2.84461 10.5332 2.87786 10.5746L7.19092 15.6612L11.5097 10.5674C11.5371 10.5329 11.6836 10.3394 11.6839 10.3389C12.4197 9.36955 12.8174 8.1857 12.8159 6.96875C12.8159 5.47691 12.2233 4.04617 11.1684 2.99127C10.1135 1.93638 8.68277 1.34375 7.19092 1.34375C5.69908 1.34375 4.26834 1.93638 3.21345 2.99127C2.15856 4.04617 1.56592 5.47691 1.56592 6.96875C1.56454 8.18636 1.96248 9.37083 2.69874 10.3406Z" fill="#0DC5AE"/>
</svg>
